<svg xmlns="http://www.w3.org/2000/svg" xmlns:xlink="http://www.w3.org/1999/xlink">

<symbol id="trumbowyg-blockquote" viewBox="0 0 512 512">
<path d="M464 256h-80v-64c0-35.3 28.7-64 64-64h8c13.3 0 24-10.7 24-24V56c0-13.3-10.7-24-24-24h-8c-88.4 0-160 71.6-160 160v240c0 26.5 21.5 48 48 48h128c26.5 0 48-21.5 48-48V304c0-26.5-21.5-48-48-48zm-288 0H96v-64c0-35.3 28.7-64 64-64h8c13.3 0 24-10.7 24-24V56c0-13.3-10.7-24-24-24h-8C71.6 32 0 103.6 0 192v240c0 26.5 21.5 48 48 48h128c26.5 0 48-21.5 48-48V304c0-26.5-21.5-48-48-48z"/>
</symbol>

<symbol id="trumbowyg-bold" viewBox="0 0 384 512">
<path transform="scale(0.7) translate(60, 100)" d="M314.52 238.78A119.76 119.76 0 0 0 232 32H48a16 16 0 0 0-16 16v16a16 16 0 0 0 16 16h16v352H48a16 16 0 0 0-16 16v16a16 16 0 0 0 16 16h208a128 128 0 0 0 128-128c0-49.49-28.38-91.92-69.48-113.22zM128 80h88a72 72 0 0 1 0 144h-88zm112 352H128V272h112a80 80 0 0 1 0 160z"/>
</symbol>

<symbol id="trumbowyg-close" viewBox="0 0 320 512">
<path d="M207.6 256l107.72-107.72c6.23-6.23 6.23-16.34 0-22.58l-25.03-25.03c-6.23-6.23-16.34-6.23-22.58 0L160 208.4 52.28 100.68c-6.23-6.23-16.34-6.23-22.58 0L4.68 125.7c-6.23 6.23-6.23 16.34 0 22.58L112.4 256 4.68 363.72c-6.23 6.23-6.23 16.34 0 22.58l25.03 25.03c6.23 6.23 16.34 6.23 22.58 0L160 303.6l107.72 107.72c6.23 6.23 16.34 6.23 22.58 0l25.03-25.03c6.23-6.23 6.23-16.34 0-22.58L207.6 256z"/>
</symbol>

<symbol id="trumbowyg-create-link" viewBox="0 0 512 512">
<path d="M314.222 197.78c51.091 51.091 54.377 132.287 9.75 187.16-6.242 7.73-2.784 3.865-84.94 86.02-54.696 54.696-143.266 54.745-197.99 0-54.711-54.69-54.734-143.255 0-197.99 32.773-32.773 51.835-51.899 63.409-63.457 7.463-7.452 20.331-2.354 20.486 8.192a173.31 173.31 0 0 0 4.746 37.828c.966 4.029-.272 8.269-3.202 11.198L80.632 312.57c-32.755 32.775-32.887 85.892 0 118.8 32.775 32.755 85.892 32.887 118.8 0l75.19-75.2c32.718-32.725 32.777-86.013 0-118.79a83.722 83.722 0 0 0-22.814-16.229c-4.623-2.233-7.182-7.25-6.561-12.346 1.356-11.122 6.296-21.885 14.815-30.405l4.375-4.375c3.625-3.626 9.177-4.594 13.76-2.294 12.999 6.524 25.187 15.211 36.025 26.049zM470.958 41.04c-54.724-54.745-143.294-54.696-197.99 0-82.156 82.156-78.698 78.29-84.94 86.02-44.627 54.873-41.341 136.069 9.75 187.16 10.838 10.838 23.026 19.525 36.025 26.049 4.582 2.3 10.134 1.331 13.76-2.294l4.375-4.375c8.52-8.519 13.459-19.283 14.815-30.405.621-5.096-1.938-10.113-6.561-12.346a83.706 83.706 0 0 1-22.814-16.229c-32.777-32.777-32.718-86.065 0-118.79l75.19-75.2c32.908-32.887 86.025-32.755 118.8 0 32.887 32.908 32.755 86.025 0 118.8l-45.848 45.84c-2.93 2.929-4.168 7.169-3.202 11.198a173.31 173.31 0 0 1 4.746 37.828c.155 10.546 13.023 15.644 20.486 8.192 11.574-11.558 30.636-30.684 63.409-63.457 54.733-54.735 54.71-143.3-.001-197.991z"/>
</symbol>

<symbol id="trumbowyg-code" viewBox="0 0 576 512">
<path fill="currentColor" d="M208 32h-88a56 56 0 0 0-56 56v77.49a40 40 0 0 1-11.72 28.29L7 239a24 24 0 0 0 0 34l45.24 45.24A40 40 0 0 1 64 346.52V424a56 56 0 0 0 56 56h88a16 16 0 0 0 16-16v-16a16 16 0 0 0-16-16h-88a8 8 0 0 1-8-8v-77.48a88.06 88.06 0 0 0-25.78-62.24L57.93 256l28.29-28.28A88.06 88.06 0 0 0 112 165.48V88a8 8 0 0 1 8-8h88a16 16 0 0 0 16-16V48a16 16 0 0 0-16-16zm361 207l-45.25-45.24A40.07 40.07 0 0 1 512 165.48V88a56 56 0 0 0-56-56h-88a16 16 0 0 0-16 16v16a16 16 0 0 0 16 16h88a8 8 0 0 1 8 8v77.48a88 88 0 0 0 25.78 62.24L518.06 256l-28.28 28.28A88 88 0 0 0 464 346.52V424a8 8 0 0 1-8 8h-88a16 16 0 0 0-16 16v16a16 16 0 0 0 16 16h88a56 56 0 0 0 56-56v-77.49a40 40 0 0 1 11.72-28.29L569 273a24 24 0 0 0 0-34z"/>
</symbol>

<symbol id="trumbowyg-refined-code" viewBox="0 0 576 512">
<path fill="currentColor" d="M208 32h-88a56 56 0 0 0-56 56v77.49a40 40 0 0 1-11.72 28.29L7 239a24 24 0 0 0 0 34l45.24 45.24A40 40 0 0 1 64 346.52V424a56 56 0 0 0 56 56h88a16 16 0 0 0 16-16v-16a16 16 0 0 0-16-16h-88a8 8 0 0 1-8-8v-77.48a88.06 88.06 0 0 0-25.78-62.24L57.93 256l28.29-28.28A88.06 88.06 0 0 0 112 165.48V88a8 8 0 0 1 8-8h88a16 16 0 0 0 16-16V48a16 16 0 0 0-16-16zm361 207l-45.25-45.24A40.07 40.07 0 0 1 512 165.48V88a56 56 0 0 0-56-56h-88a16 16 0 0 0-16 16v16a16 16 0 0 0 16 16h88a8 8 0 0 1 8 8v77.48a88 88 0 0 0 25.78 62.24L518.06 256l-28.28 28.28A88 88 0 0 0 464 346.52V424a8 8 0 0 1-8 8h-88a16 16 0 0 0-16 16v16a16 16 0 0 0 16 16h88a56 56 0 0 0 56-56v-77.49a40 40 0 0 1 11.72-28.29L569 273a24 24 0 0 0 0-34z"/>
</symbol>

<symbol id="trumbowyg-del" viewBox="0 0 512 512">
<path d="M150.39 208h113.17l-46.31-23.16a45.65 45.65 0 0 1 0-81.68A67.93 67.93 0 0 1 247.56 96H310a45.59 45.59 0 0 1 36.49 18.25l15.09 20.13a16 16 0 0 0 22.4 3.21l25.62-19.19a16 16 0 0 0 3.21-22.4L397.7 75.84A109.44 109.44 0 0 0 310.1 32h-62.54a132.49 132.49 0 0 0-58.94 13.91c-40.35 20.17-64.19 62.31-60.18 108 1.76 20.09 10.02 38.37 21.95 54.09zM496 240H16a16 16 0 0 0-16 16v16a16 16 0 0 0 16 16h480a16 16 0 0 0 16-16v-16a16 16 0 0 0-16-16zm-92.5 80h-91.07l14.32 7.16a45.65 45.65 0 0 1 0 81.68 67.93 67.93 0 0 1-30.31 7.16H234a45.59 45.59 0 0 1-36.49-18.25l-15.09-20.13a16 16 0 0 0-22.4-3.21L134.4 393.6a16 16 0 0 0-3.21 22.4l15.11 20.17A109.44 109.44 0 0 0 233.9 480h62.54a132.42 132.42 0 0 0 58.93-13.91c40.36-20.17 64.2-62.31 60.19-108-1.19-13.69-5.89-26.27-12.06-38.09z"/>
</symbol>

<symbol id="trumbowyg-em" viewBox="0 0 320 512">
<path transform="scale(0.6) translate(80, 180)" d="M320 48v16a16 16 0 0 1-16 16h-67l-88 352h59a16 16 0 0 1 16 16v16a16 16 0 0 1-16 16H16a16 16 0 0 1-16-16v-16a16 16 0 0 1 16-16h67l88-352h-59a16 16 0 0 1-16-16V48a16 16 0 0 1 16-16h192a16 16 0 0 1 16 16z"/>
</symbol>

<symbol id="trumbowyg-fullscreen" viewBox="0 0 448 512">
<path d="M0 180V56c0-13.3 10.7-24 24-24h124c6.6 0 12 5.4 12 12v24c0 6.6-5.4 12-12 12H48v100c0 6.6-5.4 12-12 12H12c-6.6 0-12-5.4-12-12zM288 44v24c0 6.6 5.4 12 12 12h100v100c0 6.6 5.4 12 12 12h24c6.6 0 12-5.4 12-12V56c0-13.3-10.7-24-24-24H300c-6.6 0-12 5.4-12 12zm148 276h-24c-6.6 0-12 5.4-12 12v100H300c-6.6 0-12 5.4-12 12v24c0 6.6 5.4 12 12 12h124c13.3 0 24-10.7 24-24V332c0-6.6-5.4-12-12-12zM160 468v-24c0-6.6-5.4-12-12-12H48V332c0-6.6-5.4-12-12-12H12c-6.6 0-12 5.4-12 12v124c0 13.3 10.7 24 24 24h124c6.6 0 12-5.4 12-12z"/>
</symbol>


<symbol id="trumbowyg-h1" viewBox="0 0 576 512">
<path d="M304 96h-98.94A13.06 13.06 0 0 0 192 109.06v21.88A13.06 13.06 0 0 0 205.06 144H232v88H88v-88h26.94A13.06 13.06 0 0 0 128 130.94V112a16 16 0 0 0-16-16H16a16 16 0 0 0-16 16v18.94A13.06 13.06 0 0 0 13.06 144H40v224H13.06A13.06 13.06 0 0 0 0 381.06V400a16 16 0 0 0 16 16h98.94A13.06 13.06 0 0 0 128 402.94v-21.88A13.06 13.06 0 0 0 114.94 368H88v-88h144v88h-26.94A13.06 13.06 0 0 0 192 381.06V400a16 16 0 0 0 16 16h96a16 16 0 0 0 16-16v-18.94A13.06 13.06 0 0 0 306.94 368H280V144h26.94A13.06 13.06 0 0 0 320 130.94V112a16 16 0 0 0-16-16zm256 272h-56V120a24 24 0 0 0-24-24h-24a24 24 0 0 0-21.44 13.26l-24 48A24 24 0 0 0 432 192h24v176h-56a16 16 0 0 0-16 16v16a16 16 0 0 0 16 16h160a16 16 0 0 0 16-16v-16a16 16 0 0 0-16-16z"/>
</symbol>
<symbol id="trumbowyg-h2" viewBox="0 0 576 512">
<path d="M304 96h-98.94A13.06 13.06 0 0 0 192 109.06v21.88A13.06 13.06 0 0 0 205.06 144H232v88H88v-88h26.94A13.06 13.06 0 0 0 128 130.94V112a16 16 0 0 0-16-16H16a16 16 0 0 0-16 16v18.94A13.06 13.06 0 0 0 13.06 144H40v224H13.06A13.06 13.06 0 0 0 0 381.06V400a16 16 0 0 0 16 16h98.94A13.06 13.06 0 0 0 128 402.94v-21.88A13.06 13.06 0 0 0 114.94 368H88v-88h144v88h-26.94A13.06 13.06 0 0 0 192 381.06V400a16 16 0 0 0 16 16h96a16 16 0 0 0 16-16v-18.94A13.06 13.06 0 0 0 306.94 368H280V144h26.94A13.06 13.06 0 0 0 320 130.94V112a16 16 0 0 0-16-16zm244.14 272.13H410.82c8.52-60.35 146-79.28 146-179.31C556.8 134.17 515 96 455.05 96a114.71 114.71 0 0 0-97.92 55.05 11.81 11.81 0 0 0 3.58 15.95L382 181.23a11.89 11.89 0 0 0 16.27-3c13-18.23 31.58-31.35 53.72-31.35 29.57 0 49.43 18.08 49.43 45 0 67-149.45 84-149.45 195.49a137.14 137.14 0 0 0 1.39 18.42 12.18 12.18 0 0 0 11.8 10.21h183A11.85 11.85 0 0 0 560 404.18V380a11.85 11.85 0 0 0-11.86-11.87z"/>
</symbol>
<symbol id="trumbowyg-h3" viewBox="0 0 576 512">
<path d="M480.07 219.78l75.39-85.88a11.82 11.82 0 0 0 2.93-7.76v-18.32A11.89 11.89 0 0 0 546.44 96H379.87a11.88 11.88 0 0 0-11.94 11.82V132a11.88 11.88 0 0 0 11.94 11.83s102.44-.11 106-.25c-2.77 2.88-74.12 85.58-74.12 85.58a11.67 11.67 0 0 0-1.86 12.38l6.71 15.3a12.94 12.94 0 0 0 10.93 7.16h17.08c48.61 0 65.85 27.23 65.85 50.56 0 28.57-24.58 50.13-57.17 50.13-24 0-46.88-10.46-65.29-26.89a12 12 0 0 0-17.76 1.81l-16 22a11.73 11.73 0 0 0 1.4 15.41c24.6 23.34 60.62 39 99.38 39 64.2 0 109.86-46.22 109.86-103.17.01-51.1-36.73-84.17-84.81-93.07zM304 96h-98.94A13.06 13.06 0 0 0 192 109.06v21.88A13.06 13.06 0 0 0 205.06 144H232v88H88v-88h26.94A13.06 13.06 0 0 0 128 130.94V112a16 16 0 0 0-16-16H16a16 16 0 0 0-16 16v18.94A13.06 13.06 0 0 0 13.06 144H40v224H13.06A13.06 13.06 0 0 0 0 381.06V400a16 16 0 0 0 16 16h98.94A13.06 13.06 0 0 0 128 402.94v-21.88A13.06 13.06 0 0 0 114.94 368H88v-88h144v88h-26.94A13.06 13.06 0 0 0 192 381.06V400a16 16 0 0 0 16 16h96a16 16 0 0 0 16-16v-18.94A13.06 13.06 0 0 0 306.94 368H280V144h26.94A13.06 13.06 0 0 0 320 130.94V112a16 16 0 0 0-16-16z"/>
</symbol>
<symbol id="trumbowyg-h4" viewBox="0 0 576 512">
<path d="M304 96h-98.94A13.06 13.06 0 0 0 192 109.06v21.88A13.06 13.06 0 0 0 205.06 144H232v88H88v-88h26.94A13.06 13.06 0 0 0 128 130.94V112a16 16 0 0 0-16-16H16a16 16 0 0 0-16 16v18.94A13.06 13.06 0 0 0 13.06 144H40v224H13.06A13.06 13.06 0 0 0 0 381.06V400a16 16 0 0 0 16 16h98.94A13.06 13.06 0 0 0 128 402.94v-21.88A13.06 13.06 0 0 0 114.94 368H88v-88h144v88h-26.94A13.06 13.06 0 0 0 192 381.06V400a16 16 0 0 0 16 16h96a16 16 0 0 0 16-16v-18.94A13.06 13.06 0 0 0 306.94 368H280V144h26.94A13.06 13.06 0 0 0 320 130.94V112a16 16 0 0 0-16-16zm256 136h-16V112a16 16 0 0 0-16-16h-16a16 16 0 0 0-16 16v120h-96V112a16 16 0 0 0-16-16h-16a16 16 0 0 0-16 16v136a32 32 0 0 0 32 32h112v120a16 16 0 0 0 16 16h16a16 16 0 0 0 16-16V280h16a16 16 0 0 0 16-16v-16a16 16 0 0 0-16-16z"/>
</symbol>
<symbol id="trumbowyg-h5" viewBox="0 0 576 512">
<path d="M304,96H205.06A13.06,13.06,0,0,0,192,109.06v21.88A13.06,13.06,0,0,0,205.06,144H232v88H88V144h26.94A13.06,13.06,0,0,0,128,130.94V112a16,16,0,0,0-16-16H16A16,16,0,0,0,0,112v18.94A13.06,13.06,0,0,0,13.06,144H40V368H13.06A13.06,13.06,0,0,0,0,381.06V400a16,16,0,0,0,16,16h98.94A13.06,13.06,0,0,0,128,402.94V381.06A13.06,13.06,0,0,0,114.94,368H88V280H232v88H205.06A13.06,13.06,0,0,0,192,381.06V400a16,16,0,0,0,16,16h96a16,16,0,0,0,16-16V381.06A13.06,13.06,0,0,0,306.94,368H280V144h26.94A13.06,13.06,0,0,0,320,130.94V112A16,16,0,0,0,304,96Z"/><path d="M571,319.08c0,53.15-40,96.4-89.3,96.4H429c-30.87,0-58.18-21.24-67.93-52.85-3.69-11.94,2.29-24.84,13.34-28.82s23,2.47,26.7,14.4c4,13,15.22,21.7,27.9,21.7h52.73c26,0,47.08-22.8,47.08-50.83s-21.12-50.82-47.08-50.82H381.05a20.51,20.51,0,0,1-16.19-8.17,24,24,0,0,1-4.57-18.62l21.1-126.16c1.82-10.9,10.56-18.79,20.77-18.79H528.79c11.65,0,21.1,10.2,21.1,22.78s-9.45,22.78-21.1,22.78h-109l-13.48,80.59H481.7C531,222.68,571,265.32,571,319.08Z"/>
</symbol>

<symbol id="trumbowyg-h6" viewBox="0 0 576 512">
<path d="M304,96H205.06A13.06,13.06,0,0,0,192,109.06v21.88A13.06,13.06,0,0,0,205.06,144H232v88H88V144h26.94A13.06,13.06,0,0,0,128,130.94V112a16,16,0,0,0-16-16H16A16,16,0,0,0,0,112v18.94A13.06,13.06,0,0,0,13.06,144H40V368H13.06A13.06,13.06,0,0,0,0,381.06V400a16,16,0,0,0,16,16h98.94A13.06,13.06,0,0,0,128,402.94V381.06A13.06,13.06,0,0,0,114.94,368H88V280H232v88H205.06A13.06,13.06,0,0,0,192,381.06V400a16,16,0,0,0,16,16h96a16,16,0,0,0,16-16V381.06A13.06,13.06,0,0,0,306.94,368H280V144h26.94A13.06,13.06,0,0,0,320,130.94V112A16,16,0,0,0,304,96Z"/><path d="M459.53,187.57,506,132.9a23,23,0,1,0-35-29.78C366.36,226.17,339,248.45,339,302a115,115,0,0,0,230,0C569,240.47,520.34,190.52,459.53,187.57ZM454,371a69.07,69.07,0,0,1-69-69c0-38.05,30.95-68.36,69-68.36s69,30.95,69,68.36S492,371,454,371Z"/>
</symbol>

<symbol id="trumbowyg-horizontal-rule" viewBox="0 0 640 512">
<path d="M640 247.5v17a16 16 0 0 1-16 16H16a16 16 0 0 1-16-16v-17a16 16 0 0 1 16-16h608a16 16 0 0 1 16 16z"/>
</symbol>

<symbol id="trumbowyg-insert-image" viewBox="0 0 512 512">
<path d="M464 64H48C21.49 64 0 85.49 0 112v288c0 26.51 21.49 48 48 48h416c26.51 0 48-21.49 48-48V112c0-26.51-21.49-48-48-48zm-6 336H54a6 6 0 0 1-6-6V118a6 6 0 0 1 6-6h404a6 6 0 0 1 6 6v276a6 6 0 0 1-6 6zM128 152c-22.091 0-40 17.909-40 40s17.909 40 40 40 40-17.909 40-40-17.909-40-40-40zM96 352h320v-80l-87.515-87.515c-4.686-4.686-12.284-4.686-16.971 0L192 304l-39.515-39.515c-4.686-4.686-12.284-4.686-16.971 0L96 304v48z"/>
</symbol>

<symbol id="trumbowyg-refined-insert-image" viewBox="0 0 512 512">
<path d="M464 64H48C21.49 64 0 85.49 0 112v288c0 26.51 21.49 48 48 48h416c26.51 0 48-21.49 48-48V112c0-26.51-21.49-48-48-48zm-6 336H54a6 6 0 0 1-6-6V118a6 6 0 0 1 6-6h404a6 6 0 0 1 6 6v276a6 6 0 0 1-6 6zM128 152c-22.091 0-40 17.909-40 40s17.909 40 40 40 40-17.909 40-40-17.909-40-40-40zM96 352h320v-80l-87.515-87.515c-4.686-4.686-12.284-4.686-16.971 0L192 304l-39.515-39.515c-4.686-4.686-12.284-4.686-16.971 0L96 304v48z"/>
</symbol>

<symbol id="trumbowyg-italic" viewBox="0 0 320 512">
<path transform="scale(0.6) translate(80, 180)" d="M320 48v16a16 16 0 0 1-16 16h-67l-88 352h59a16 16 0 0 1 16 16v16a16 16 0 0 1-16 16H16a16 16 0 0 1-16-16v-16a16 16 0 0 1 16-16h67l88-352h-59a16 16 0 0 1-16-16V48a16 16 0 0 1 16-16h192a16 16 0 0 1 16 16z"/>
</symbol>

<symbol id="trumbowyg-justify-center" viewBox="0 0 448 512">
<path d="M108.1 88h231.81A12.09 12.09 0 0 0 352 75.9V52.09A12.09 12.09 0 0 0 339.91 40H108.1A12.09 12.09 0 0 0 96 52.09V75.9A12.1 12.1 0 0 0 108.1 88zM432 424H16a16 16 0 0 0-16 16v16a16 16 0 0 0 16 16h416a16 16 0 0 0 16-16v-16a16 16 0 0 0-16-16zm0-256H16a16 16 0 0 0-16 16v16a16 16 0 0 0 16 16h416a16 16 0 0 0 16-16v-16a16 16 0 0 0-16-16zm-92.09 176A12.09 12.09 0 0 0 352 331.9v-23.81A12.09 12.09 0 0 0 339.91 296H108.1A12.09 12.09 0 0 0 96 308.09v23.81a12.1 12.1 0 0 0 12.1 12.1z"/>
</symbol>

<symbol id="trumbowyg-justify-full" viewBox="0 0 448 512">
<path d="M432 424H16a16 16 0 0 0-16 16v16a16 16 0 0 0 16 16h416a16 16 0 0 0 16-16v-16a16 16 0 0 0-16-16zm0-128H16a16 16 0 0 0-16 16v16a16 16 0 0 0 16 16h416a16 16 0 0 0 16-16v-16a16 16 0 0 0-16-16zm0-128H16a16 16 0 0 0-16 16v16a16 16 0 0 0 16 16h416a16 16 0 0 0 16-16v-16a16 16 0 0 0-16-16zm0-128H16A16 16 0 0 0 0 56v16a16 16 0 0 0 16 16h416a16 16 0 0 0 16-16V56a16 16 0 0 0-16-16z"/>
</symbol>

<symbol id="trumbowyg-justify-right" viewBox="0 0 448 512">
<path d="M16 216h416a16 16 0 0 0 16-16v-16a16 16 0 0 0-16-16H16a16 16 0 0 0-16 16v16a16 16 0 0 0 16 16zm416 208H16a16 16 0 0 0-16 16v16a16 16 0 0 0 16 16h416a16 16 0 0 0 16-16v-16a16 16 0 0 0-16-16zm3.17-384H172.83A12.82 12.82 0 0 0 160 52.83v22.34A12.82 12.82 0 0 0 172.83 88h262.34A12.82 12.82 0 0 0 448 75.17V52.83A12.82 12.82 0 0 0 435.17 40zm0 256H172.83A12.82 12.82 0 0 0 160 308.83v22.34A12.82 12.82 0 0 0 172.83 344h262.34A12.82 12.82 0 0 0 448 331.17v-22.34A12.82 12.82 0 0 0 435.17 296z"/>
</symbol>

<symbol id="trumbowyg-justify-left" viewBox="0 0 448 512">
<path d="M12.83 344h262.34A12.82 12.82 0 0 0 288 331.17v-22.34A12.82 12.82 0 0 0 275.17 296H12.83A12.82 12.82 0 0 0 0 308.83v22.34A12.82 12.82 0 0 0 12.83 344zm0-256h262.34A12.82 12.82 0 0 0 288 75.17V52.83A12.82 12.82 0 0 0 275.17 40H12.83A12.82 12.82 0 0 0 0 52.83v22.34A12.82 12.82 0 0 0 12.83 88zM432 168H16a16 16 0 0 0-16 16v16a16 16 0 0 0 16 16h416a16 16 0 0 0 16-16v-16a16 16 0 0 0-16-16zm0 256H16a16 16 0 0 0-16 16v16a16 16 0 0 0 16 16h416a16 16 0 0 0 16-16v-16a16 16 0 0 0-16-16z"/>
</symbol>

<symbol id="trumbowyg-link" viewBox="0 0 512 512">
<path d="M314.222 197.78c51.091 51.091 54.377 132.287 9.75 187.16-6.242 7.73-2.784 3.865-84.94 86.02-54.696 54.696-143.266 54.745-197.99 0-54.711-54.69-54.734-143.255 0-197.99 32.773-32.773 51.835-51.899 63.409-63.457 7.463-7.452 20.331-2.354 20.486 8.192a173.31 173.31 0 0 0 4.746 37.828c.966 4.029-.272 8.269-3.202 11.198L80.632 312.57c-32.755 32.775-32.887 85.892 0 118.8 32.775 32.755 85.892 32.887 118.8 0l75.19-75.2c32.718-32.725 32.777-86.013 0-118.79a83.722 83.722 0 0 0-22.814-16.229c-4.623-2.233-7.182-7.25-6.561-12.346 1.356-11.122 6.296-21.885 14.815-30.405l4.375-4.375c3.625-3.626 9.177-4.594 13.76-2.294 12.999 6.524 25.187 15.211 36.025 26.049zM470.958 41.04c-54.724-54.745-143.294-54.696-197.99 0-82.156 82.156-78.698 78.29-84.94 86.02-44.627 54.873-41.341 136.069 9.75 187.16 10.838 10.838 23.026 19.525 36.025 26.049 4.582 2.3 10.134 1.331 13.76-2.294l4.375-4.375c8.52-8.519 13.459-19.283 14.815-30.405.621-5.096-1.938-10.113-6.561-12.346a83.706 83.706 0 0 1-22.814-16.229c-32.777-32.777-32.718-86.065 0-118.79l75.19-75.2c32.908-32.887 86.025-32.755 118.8 0 32.887 32.908 32.755 86.025 0 118.8l-45.848 45.84c-2.93 2.929-4.168 7.169-3.202 11.198a173.31 173.31 0 0 1 4.746 37.828c.155 10.546 13.023 15.644 20.486 8.192 11.574-11.558 30.636-30.684 63.409-63.457 54.733-54.735 54.71-143.3-.001-197.991z"/>
</symbol>

<symbol id="trumbowyg-refined-link" viewBox="0 0 512 512">
<path d="M314.222 197.78c51.091 51.091 54.377 132.287 9.75 187.16-6.242 7.73-2.784 3.865-84.94 86.02-54.696 54.696-143.266 54.745-197.99 0-54.711-54.69-54.734-143.255 0-197.99 32.773-32.773 51.835-51.899 63.409-63.457 7.463-7.452 20.331-2.354 20.486 8.192a173.31 173.31 0 0 0 4.746 37.828c.966 4.029-.272 8.269-3.202 11.198L80.632 312.57c-32.755 32.775-32.887 85.892 0 118.8 32.775 32.755 85.892 32.887 118.8 0l75.19-75.2c32.718-32.725 32.777-86.013 0-118.79a83.722 83.722 0 0 0-22.814-16.229c-4.623-2.233-7.182-7.25-6.561-12.346 1.356-11.122 6.296-21.885 14.815-30.405l4.375-4.375c3.625-3.626 9.177-4.594 13.76-2.294 12.999 6.524 25.187 15.211 36.025 26.049zM470.958 41.04c-54.724-54.745-143.294-54.696-197.99 0-82.156 82.156-78.698 78.29-84.94 86.02-44.627 54.873-41.341 136.069 9.75 187.16 10.838 10.838 23.026 19.525 36.025 26.049 4.582 2.3 10.134 1.331 13.76-2.294l4.375-4.375c8.52-8.519 13.459-19.283 14.815-30.405.621-5.096-1.938-10.113-6.561-12.346a83.706 83.706 0 0 1-22.814-16.229c-32.777-32.777-32.718-86.065 0-118.79l75.19-75.2c32.908-32.887 86.025-32.755 118.8 0 32.887 32.908 32.755 86.025 0 118.8l-45.848 45.84c-2.93 2.929-4.168 7.169-3.202 11.198a173.31 173.31 0 0 1 4.746 37.828c.155 10.546 13.023 15.644 20.486 8.192 11.574-11.558 30.636-30.684 63.409-63.457 54.733-54.735 54.71-143.3-.001-197.991z"/>
</symbol>

<symbol id="trumbowyg-p" viewBox="0 0 448 512">
<path transform="scale(0.8) translate(60, 90)"  d="M415 32H191a160 160 0 0 0 0 320h48v112a16 16 0 0 0 16 16h16a16 16 0 0 0 16-16V80h48v384a16 16 0 0 0 16 16h16a16 16 0 0 0 16-16V80h32a16 16 0 0 0 16-16V48a16 16 0 0 0-16-16zM239 304h-48a112 112 0 0 1 0-224h48z"/>
</symbol>

<symbol id="trumbowyg-ordered-list" viewBox="0 0 512 512">
<path d="M80 48H16A16 16 0 0 0 0 64v64a16 16 0 0 0 16 16h64a16 16 0 0 0 16-16V64a16 16 0 0 0-16-16zm0 160H16a16 16 0 0 0-16 16v64a16 16 0 0 0 16 16h64a16 16 0 0 0 16-16v-64a16 16 0 0 0-16-16zm0 160H16a16 16 0 0 0-16 16v64a16 16 0 0 0 16 16h64a16 16 0 0 0 16-16v-64a16 16 0 0 0-16-16zm416-136H176a16 16 0 0 0-16 16v16a16 16 0 0 0 16 16h320a16 16 0 0 0 16-16v-16a16 16 0 0 0-16-16zm0 160H176a16 16 0 0 0-16 16v16a16 16 0 0 0 16 16h320a16 16 0 0 0 16-16v-16a16 16 0 0 0-16-16zm0-320H176a16 16 0 0 0-16 16v16a16 16 0 0 0 16 16h320a16 16 0 0 0 16-16V88a16 16 0 0 0-16-16z"/>
</symbol>

<symbol id="trumbowyg-redo" viewBox="0 0 512 512">
<path d="M500 8h-27.711c-6.739 0-12.157 5.548-11.997 12.286l2.347 98.568C418.075 51.834 341.788 7.73 255.207 8.001 118.82 8.428 7.787 120.009 8 256.396 8.214 393.181 119.165 504 256 504c63.926 0 122.202-24.187 166.178-63.908 5.113-4.618 5.354-12.561.482-17.433l-19.738-19.738c-4.498-4.498-11.753-4.785-16.501-.552C351.787 433.246 306.105 452 256 452c-108.322 0-196-87.662-196-196 0-108.322 87.662-196 196-196 79.545 0 147.941 47.282 178.675 115.302l-126.389-3.009c-6.737-.16-12.286 5.257-12.286 11.997V212c0 6.627 5.373 12 12 12h192c6.627 0 12-5.373 12-12V20c0-6.627-5.373-12-12-12z"/>
</symbol>

<symbol id="trumbowyg-removeformat" viewBox="0 0 640 512">
<path d="M634 471L36 3.5A16 16 0 0 0 13.49 6l-10 12.5A16 16 0 0 0 6 41l598 467.5a16 16 0 0 0 22.5-2.5l10-12.5A16 16 0 0 0 634 471zM352 96l-24.76 74.27L378 210l38-114h144v32a16 16 0 0 0 16 16h16a16 16 0 0 0 16-16V48a16 16 0 0 0-16-16H176a15.86 15.86 0 0 0-14.18 8.94L232.24 96zm-16 336h-32l25.68-77-50.77-39.7L240 432h-32a16 16 0 0 0-16 16v16a16 16 0 0 0 16 16h128a16 16 0 0 0 16-16v-16a16 16 0 0 0-16-16z"/>
</symbol>

<symbol id="trumbowyg-strikethrough" viewBox="0 0 512 512">
<path d="M150.39 208h113.17l-46.31-23.16a45.65 45.65 0 0 1 0-81.68A67.93 67.93 0 0 1 247.56 96H310a45.59 45.59 0 0 1 36.49 18.25l15.09 20.13a16 16 0 0 0 22.4 3.21l25.62-19.19a16 16 0 0 0 3.21-22.4L397.7 75.84A109.44 109.44 0 0 0 310.1 32h-62.54a132.49 132.49 0 0 0-58.94 13.91c-40.35 20.17-64.19 62.31-60.18 108 1.76 20.09 10.02 38.37 21.95 54.09zM496 240H16a16 16 0 0 0-16 16v16a16 16 0 0 0 16 16h480a16 16 0 0 0 16-16v-16a16 16 0 0 0-16-16zm-92.5 80h-91.07l14.32 7.16a45.65 45.65 0 0 1 0 81.68 67.93 67.93 0 0 1-30.31 7.16H234a45.59 45.59 0 0 1-36.49-18.25l-15.09-20.13a16 16 0 0 0-22.4-3.21L134.4 393.6a16 16 0 0 0-3.21 22.4l15.11 20.17A109.44 109.44 0 0 0 233.9 480h62.54a132.42 132.42 0 0 0 58.93-13.91c40.36-20.17 64.2-62.31 60.19-108-1.19-13.69-5.89-26.27-12.06-38.09z"/>
</symbol>

<symbol id="trumbowyg-strong" viewBox="0 0 384 512">
<path transform="scale(0.7) translate(60, 100)" d="M314.52 238.78A119.76 119.76 0 0 0 232 32H48a16 16 0 0 0-16 16v16a16 16 0 0 0 16 16h16v352H48a16 16 0 0 0-16 16v16a16 16 0 0 0 16 16h208a128 128 0 0 0 128-128c0-49.49-28.38-91.92-69.48-113.22zM128 80h88a72 72 0 0 1 0 144h-88zm112 352H128V272h112a80 80 0 0 1 0 160z"/>
</symbol>

<symbol id="trumbowyg-subscript" viewBox="0 0 512 512">
<path d="M336 64h-52.28a16 16 0 0 0-13.31 7.12L176 212.73 81.59 71.12A16 16 0 0 0 68.28 64H16A16 16 0 0 0 0 80v16a16 16 0 0 0 16 16h35.16l96 144-96 144H16a16 16 0 0 0-16 16v16a16 16 0 0 0 16 16h52.28a16 16 0 0 0 13.31-7.12L176 299.27l94.41 141.61a16 16 0 0 0 13.31 7.12H336a16 16 0 0 0 16-16v-16a16 16 0 0 0-16-16h-35.16l-96-144 96-144H336a16 16 0 0 0 16-16V80a16 16 0 0 0-16-16zm160 400h-24V304a16 16 0 0 0-16-16h-32a16 16 0 0 0-14.29 8.83l-16 32A16 16 0 0 0 408 352h16v112h-24a16 16 0 0 0-16 16v16a16 16 0 0 0 16 16h96a16 16 0 0 0 16-16v-16a16 16 0 0 0-16-16z"/>
</symbol>

<symbol id="trumbowyg-superscript" viewBox="0 0 512 512">
<path d="M336 64h-52.28a16 16 0 0 0-13.31 7.12L176 212.73 81.59 71.12A16 16 0 0 0 68.28 64H16A16 16 0 0 0 0 80v16a16 16 0 0 0 16 16h35.16l96 144-96 144H16a16 16 0 0 0-16 16v16a16 16 0 0 0 16 16h52.28a16 16 0 0 0 13.31-7.12L176 299.27l94.41 141.61a16 16 0 0 0 13.31 7.12H336a16 16 0 0 0 16-16v-16a16 16 0 0 0-16-16h-35.16l-96-144 96-144H336a16 16 0 0 0 16-16V80a16 16 0 0 0-16-16zm160 112h-24V16a16 16 0 0 0-16-16h-32a16 16 0 0 0-14.29 8.83l-16 32A16 16 0 0 0 408 64h16v112h-24a16 16 0 0 0-16 16v16a16 16 0 0 0 16 16h96a16 16 0 0 0 16-16v-16a16 16 0 0 0-16-16z"/>
</symbol>


<symbol viewBox="0 0 448 512" id="trumbowyg-underline">
<path transform="scale(0.8) translate(60, 100)" d="M32 48h32v208c0 88.22 71.78 160 160 160s160-71.78 160-160V48h32a16 16 0 0 0 16-16V16a16 16 0 0 0-16-16H288a16 16 0 0 0-16 16v16a16 16 0 0 0 16 16h32v208a96 96 0 0 1-192 0V48h32a16 16 0 0 0 16-16V16a16 16 0 0 0-16-16H32a16 16 0 0 0-16 16v16a16 16 0 0 0 16 16zm400 416H16a16 16 0 0 0-16 16v16a16 16 0 0 0 16 16h416a16 16 0 0 0 16-16v-16a16 16 0 0 0-16-16z"/>
</symbol>

<symbol id="trumbowyg-undo" viewBox="0 0 512 512">
<path d="M12 8h27.711c6.739 0 12.157 5.548 11.997 12.286l-2.347 98.568C93.925 51.834 170.212 7.73 256.793 8.001 393.18 8.428 504.213 120.009 504 256.396 503.786 393.181 392.835 504 256 504c-63.926 0-122.202-24.187-166.178-63.908-5.113-4.618-5.354-12.561-.482-17.433l19.738-19.738c4.498-4.498 11.753-4.785 16.501-.552C160.213 433.246 205.895 452 256 452c108.322 0 196-87.662 196-196 0-108.322-87.662-196-196-196-79.545 0-147.941 47.282-178.675 115.302l126.389-3.009c6.737-.16 12.286 5.257 12.286 11.997V212c0 6.627-5.373 12-12 12H12c-6.627 0-12-5.373-12-12V20C0 13.373 5.373 8 12 8z"/>
</symbol>

<symbol id="trumbowyg-unlink" viewBox="0 0 512 512">
<path d="M304.083 388.936c4.686 4.686 4.686 12.284 0 16.971l-65.057 65.056c-54.709 54.711-143.27 54.721-197.989 0-54.713-54.713-54.719-143.27 0-197.989l65.056-65.057c4.686-4.686 12.284-4.686 16.971 0l22.627 22.627c4.686 4.686 4.686 12.284 0 16.971L81.386 311.82c-34.341 34.341-33.451 88.269.597 120.866 32.577 31.187 84.788 31.337 117.445-1.32l65.057-65.056c4.686-4.686 12.284-4.686 16.971 0l22.627 22.626zm-56.568-243.245l64.304-64.304c34.346-34.346 88.286-33.453 120.882.612 31.18 32.586 31.309 84.785-1.335 117.43l-65.056 65.057c-4.686 4.686-4.686 12.284 0 16.971l22.627 22.627c4.686 4.686 12.284 4.686 16.971 0l65.056-65.057c54.711-54.709 54.721-143.271 0-197.99-54.71-54.711-143.27-54.72-197.989 0l-65.057 65.057c-4.686 4.686-4.686 12.284 0 16.971l22.627 22.627c4.685 4.685 12.283 4.685 16.97-.001zm238.343 362.794l22.627-22.627c4.686-4.686 4.686-12.284 0-16.971L43.112 3.515c-4.686-4.686-12.284-4.686-16.971 0L3.515 26.142c-4.686 4.686-4.686 12.284 0 16.971l465.373 465.373c4.686 4.686 12.284 4.686 16.97-.001z"/>
</symbol>

<symbol id="trumbowyg-unordered-list" viewBox="0 0 512 512">
<path d="M61.77 401l17.5-20.15a19.92 19.92 0 0 0 5.07-14.19v-3.31C84.34 356 80.5 352 73 352H16a8 8 0 0 0-8 8v16a8 8 0 0 0 8 8h22.84a154.82 154.82 0 0 0-11 12.31l-5.61 7c-4 5.07-5.25 10.13-2.8 14.88l1.05 1.93c3 5.76 6.3 7.88 12.25 7.88h4.73c10.33 0 15.94 2.44 15.94 9.09 0 4.72-4.2 8.22-14.36 8.22a41.54 41.54 0 0 1-15.47-3.12c-6.49-3.88-11.74-3.5-15.6 3.12l-5.59 9.31c-3.73 6.13-3.2 11.72 2.62 15.94 7.71 4.69 20.39 9.44 37 9.44 34.16 0 48.5-22.75 48.5-44.12-.03-14.38-9.12-29.76-28.73-34.88zM496 392H176a16 16 0 0 0-16 16v16a16 16 0 0 0 16 16h320a16 16 0 0 0 16-16v-16a16 16 0 0 0-16-16zm0-320H176a16 16 0 0 0-16 16v16a16 16 0 0 0 16 16h320a16 16 0 0 0 16-16V88a16 16 0 0 0-16-16zm0 160H176a16 16 0 0 0-16 16v16a16 16 0 0 0 16 16h320a16 16 0 0 0 16-16v-16a16 16 0 0 0-16-16zM16 160h64a8 8 0 0 0 8-8v-16a8 8 0 0 0-8-8H64V40a8 8 0 0 0-8-8H32a8 8 0 0 0-7.14 4.42l-8 16A8 8 0 0 0 24 64h8v64H16a8 8 0 0 0-8 8v16a8 8 0 0 0 8 8zm-3.9 160H80a8 8 0 0 0 8-8v-16a8 8 0 0 0-8-8H41.33c3.28-10.29 48.33-18.68 48.33-56.44 0-29.06-25-39.56-44.47-39.56-21.36 0-33.8 10-40.45 18.75-4.38 5.59-3 10.84 2.79 15.37l8.58 6.88c5.61 4.56 11 2.47 16.13-2.44a13.4 13.4 0 0 1 9.45-3.84c3.33 0 9.28 1.56 9.28 8.75C51 248.19 0 257.31 0 304.59v4C0 316 5.08 320 12.1 320z"/>
</symbol>

<symbol id="trumbowyg-view-html" viewBox="0 0 576 512">
<path d="M234.8 511.7L196 500.4c-4.2-1.2-6.7-5.7-5.5-9.9L331.3 5.8c1.2-4.2 5.7-6.7 9.9-5.5L380 11.6c4.2 1.2 6.7 5.7 5.5 9.9L244.7 506.2c-1.2 4.3-5.6 6.7-9.9 5.5zm-83.2-121.1l27.2-29c3.1-3.3 2.8-8.5-.5-11.5L72.2 256l106.1-94.1c3.4-3 3.6-8.2.5-11.5l-27.2-29c-3-3.2-8.1-3.4-11.3-.4L2.5 250.2c-3.4 3.2-3.4 8.5 0 11.7L140.3 391c3.2 3 8.2 2.8 11.3-.4zm284.1.4l137.7-129.1c3.4-3.2 3.4-8.5 0-11.7L435.7 121c-3.2-3-8.3-2.9-11.3.4l-27.2 29c-3.1 3.3-2.8 8.5.5 11.5L503.8 256l-106.1 94.1c-3.4 3-3.6 8.2-.5 11.5l27.2 29c3.1 3.2 8.1 3.4 11.3.4z"/>
</symbol>

<symbol id="trumbowyg-fore-color" viewBox="0 0 448 512">
<path d="M432 432h-33.32l-135-389.24A16 16 0 0 0 248.55 32h-49.1a16 16 0 0 0-15.12 10.76L49.32 432H16a16 16 0 0 0-16 16v16a16 16 0 0 0 16 16h128a16 16 0 0 0 16-16v-16a16 16 0 0 0-16-16h-35.44l33.31-96h164.26l33.31 96H304a16 16 0 0 0-16 16v16a16 16 0 0 0 16 16h128a16 16 0 0 0 16-16v-16a16 16 0 0 0-16-16zM158.53 288L224 99.31 289.47 288z"/>
</symbol>


<symbol id="trumbowyg-emoji" viewBox="0 0 496 512">
<path d="M248 8C111 8 0 119 0 256s111 248 248 248 248-111 248-248S385 8 248 8zm0 448c-110.3 0-200-89.7-200-200S137.7 56 248 56s200 89.7 200 200-89.7 200-200 200zm84-143.4c-20.8 25-51.5 39.4-84 39.4s-63.2-14.3-84-39.4c-8.5-10.2-23.6-11.5-33.8-3.1-10.2 8.5-11.5 23.6-3.1 33.8 30 36 74.1 56.6 120.9 56.6s90.9-20.6 120.9-56.6c8.5-10.2 7.1-25.3-3.1-33.8-10.2-8.4-25.3-7.1-33.8 3.1zM136.5 211c7.7-13.7 19.2-21.6 31.5-21.6s23.8 7.9 31.5 21.6l9.5 17c2.1 3.7 6.2 4.7 9.3 3.7 3.6-1.1 6-4.5 5.7-8.3-3.3-42.1-32.2-71.4-56-71.4s-52.7 29.3-56 71.4c-.3 3.7 2.1 7.2 5.7 8.3 3.4 1.1 7.4-.5 9.3-3.7l9.5-17zM328 152c-23.8 0-52.7 29.3-56 71.4-.3 3.7 2.1 7.2 5.7 8.3 3.5 1.1 7.4-.5 9.3-3.7l9.5-17c7.7-13.7 19.2-21.6 31.5-21.6s23.8 7.9 31.5 21.6l9.5 17c2.1 3.7 6.2 4.7 9.3 3.7 3.6-1.1 6-4.5 5.7-8.3-3.3-42.1-32.2-71.4-56-71.4z"/>
</symbol>

<symbol id="trumbowyg-fontsize" viewBox="0 0 640 512">
<path d="M624 32H272a16 16 0 0 0-16 16v80a16 16 0 0 0 16 16h16a16 16 0 0 0 16-16V96h112v336h-48a16 16 0 0 0-16 16v16a16 16 0 0 0 16 16h160a16 16 0 0 0 16-16v-16a16 16 0 0 0-16-16h-48V96h112v32a16 16 0 0 0 16 16h16a16 16 0 0 0 16-16V48a16 16 0 0 0-16-16zM304 224H16a16 16 0 0 0-16 16v64a16 16 0 0 0 16 16h16a16 16 0 0 0 16-16v-32h80v160H96a16 16 0 0 0-16 16v16a16 16 0 0 0 16 16h128a16 16 0 0 0 16-16v-16a16 16 0 0 0-16-16h-32V272h80v32a16 16 0 0 0 16 16h16a16 16 0 0 0 16-16v-64a16 16 0 0 0-16-16z"/>
</symbol>

<symbol id="trumbowyg-highlight" viewBox="0 0 544 512">
<path d="M0 479.98L99.88 512l35.56-35.58-67.01-67.04L0 479.98zM527.93 79.27l-63.17-63.2C454.09 5.39 440.04 0 425.97 0c-12.93 0-25.88 4.55-36.28 13.73L124.8 239.96a36.598 36.598 0 0 0-10.79 38.1l13.05 42.83-33.95 33.97c-9.37 9.37-9.37 24.56 0 33.93l62.26 62.29c9.37 9.38 24.58 9.38 33.95 0l33.86-33.88 42.72 13.08a36.54 36.54 0 0 0 10.7 1.61 36.57 36.57 0 0 0 27.43-12.38l226.25-265.13c19.16-21.72 18.14-54.61-2.35-75.11zM272.78 382.18l-35.55-10.89-27.59-8.45-20.4 20.41-16.89 16.9-28.31-28.32 16.97-16.98 20.37-20.38-8.4-27.57-10.86-35.66 38.23-32.65 105.18 105.23-32.75 38.36zm220.99-258.97L326.36 319.39l-101.6-101.65 196.68-168c1.29-1.14 2.82-1.72 4.53-1.72 1.3 0 3.2.35 4.86 2.01l63.17 63.2c2.54 2.56 2.67 6.68-.23 9.98z"/>
</symbol>

<symbol id="trumbowyg-indent" viewBox="0 0 448 512">
<path d="M432 424H16a16 16 0 0 0-16 16v16a16 16 0 0 0 16 16h416a16 16 0 0 0 16-16v-16a16 16 0 0 0-16-16zM27.31 363.3l96-96a16 16 0 0 0 0-22.62l-96-96C17.27 138.66 0 145.78 0 160v192c0 14.31 17.33 21.3 27.31 11.3zM435.17 168H204.83A12.82 12.82 0 0 0 192 180.83v22.34A12.82 12.82 0 0 0 204.83 216h230.34A12.82 12.82 0 0 0 448 203.17v-22.34A12.82 12.82 0 0 0 435.17 168zM432 48H16A16 16 0 0 0 0 64v16a16 16 0 0 0 16 16h416a16 16 0 0 0 16-16V64a16 16 0 0 0-16-16zm3.17 248H204.83A12.82 12.82 0 0 0 192 308.83v22.34A12.82 12.82 0 0 0 204.83 344h230.34A12.82 12.82 0 0 0 448 331.17v-22.34A12.82 12.82 0 0 0 435.17 296z"/>
</symbol>

<symbol id="trumbowyg-outdent" viewBox="0 0 448 512">
<path d="M100.69 363.29c10 10 27.31 2.93 27.31-11.31V160c0-14.32-17.33-21.31-27.31-11.31l-96 96a16 16 0 0 0 0 22.62zM432 424H16a16 16 0 0 0-16 16v16a16 16 0 0 0 16 16h416a16 16 0 0 0 16-16v-16a16 16 0 0 0-16-16zm3.17-128H204.83A12.82 12.82 0 0 0 192 308.83v22.34A12.82 12.82 0 0 0 204.83 344h230.34A12.82 12.82 0 0 0 448 331.17v-22.34A12.82 12.82 0 0 0 435.17 296zM432 40H16A16 16 0 0 0 0 56v16a16 16 0 0 0 16 16h416a16 16 0 0 0 16-16V56a16 16 0 0 0-16-16zm3.17 128H204.83A12.82 12.82 0 0 0 192 180.83v22.34A12.82 12.82 0 0 0 204.83 216h230.34A12.82 12.82 0 0 0 448 203.17v-22.34A12.82 12.82 0 0 0 435.17 168z"/>
</symbol>

<symbol id="trumbowyg-insert-audio" viewBox="0 0 480 512">
<path d="M394.23 100.85c-11.19-7.09-26.03-3.8-33.12 7.41s-3.78 26.03 7.41 33.12C408.27 166.6 432 209.44 432 256s-23.73 89.41-63.48 114.62c-11.19 7.09-14.5 21.92-7.41 33.12 6.51 10.28 21.12 15.03 33.12 7.41C447.94 377.09 480 319.09 480 256s-32.06-121.09-85.77-155.15zm-56 78.28c-11.58-6.33-26.19-2.16-32.61 9.45-6.39 11.61-2.16 26.2 9.45 32.61C327.98 228.28 336 241.63 336 256c0 14.37-8.02 27.72-20.92 34.81-11.61 6.41-15.84 21-9.45 32.61 6.43 11.66 21.05 15.8 32.61 9.45 28.23-15.55 45.77-45 45.77-76.87s-17.54-61.33-45.78-76.87zM231.81 64c-5.91 0-11.92 2.18-16.78 7.05L126.06 160H24c-13.26 0-24 10.74-24 24v144c0 13.25 10.74 24 24 24h102.06l88.97 88.95c4.87 4.87 10.88 7.05 16.78 7.05 12.33 0 24.19-9.52 24.19-24.02V88.02C256 73.51 244.13 64 231.81 64zM208 366.05L145.94 304H48v-96h97.94L208 145.95v220.1z"/>
</symbol>

<symbol id="trumbowyg-lineheight" viewBox="0 0 640 512">
<path d="M626.29 392H269.71c-7.57 0-13.71 7.16-13.71 16v16c0 8.84 6.14 16 13.71 16h356.58c7.57 0 13.71-7.16 13.71-16v-16c0-8.84-6.14-16-13.71-16zM176 144c14.31 0 21.33-17.31 11.31-27.31l-80-80a16 16 0 0 0-22.62 0l-80 80C-4.64 126 .36 144 16 144h56v224H16c-14.29 0-21.31 17.31-11.29 27.31l80 80a16 16 0 0 0 22.62 0l80-80C196.64 386 191.64 368 176 368h-56V144zm450.31 88h-356.6c-7.57 0-13.71 7.16-13.71 16v16c0 8.84 6.14 16 13.71 16h356.58c7.57 0 13.71-7.16 13.71-16v-16c0-8.84-6.14-16-13.71-16zm0-160h-356.6C262.14 72 256 79.16 256 88v16c0 8.84 6.14 16 13.71 16h356.58c7.57 0 13.71-7.16 13.71-16V88c0-8.84-6.14-16-13.71-16z"/>
</symbol>

<symbol id="trumbowyg-mention" viewBox="0 0 512 512">
<path d="M504 232C504 95.751 394.053 8 256 8 118.94 8 8 118.919 8 256c0 137.059 110.919 248 248 248 52.926 0 104.681-17.079 147.096-48.321 5.501-4.052 6.423-11.924 2.095-17.211l-15.224-18.597c-4.055-4.954-11.249-5.803-16.428-2.041C339.547 442.517 298.238 456 256 456c-110.28 0-200-89.72-200-200S145.72 56 256 56c109.469 0 200 65.02 200 176 0 63.106-42.478 98.29-83.02 98.29-19.505 0-20.133-12.62-16.366-31.463l28.621-148.557c1.426-7.402-4.245-14.27-11.783-14.27h-39.175a12.005 12.005 0 0 0-11.784 9.735c-1.102 5.723-1.661 8.336-2.28 13.993-11.923-19.548-35.878-31.068-65.202-31.068C183.412 128.66 120 191.149 120 281.53c0 61.159 32.877 102.11 93.18 102.11 29.803 0 61.344-16.833 79.749-42.239 4.145 30.846 28.497 38.01 59.372 38.01C451.467 379.41 504 315.786 504 232zm-273.9 97.35c-28.472 0-45.47-19.458-45.47-52.05 0-57.514 39.56-93.41 74.61-93.41 30.12 0 45.471 21.532 45.471 51.58 0 46.864-33.177 93.88-74.611 93.88z"/>
</symbol>

<symbol id="trumbowyg-noembed" viewBox="0 0 576 512">
<path d="M543.9 96c-6.2 0-12.5 1.8-18.2 5.7L416 170.1v-58.3c0-26.4-23.2-47.8-51.8-47.8H51.8C23.2 64 0 85.4 0 111.8v288.4C0 426.6 23.2 448 51.8 448h312.4c28.6 0 51.8-21.4 51.8-47.8v-58.3l109.7 68.3c5.7 4 12.1 5.7 18.2 5.7 16.6 0 32.1-13 32.1-31.5V127.5C576 109 560.5 96 543.9 96zM368 200v198.9c-.6.4-1.8 1.1-3.8 1.1H51.8c-2 0-3.2-.6-3.8-1.1V113.1c.6-.4 1.8-1.1 3.8-1.1h312.4c2 0 3.2.6 3.8 1.1V200zm160 155.2l-112-69.8v-58.7l112-69.8v198.3z"/>
</symbol>


<symbol id="trumbowyg-preformatted" viewBox="0 0 576 512">
<path d="M208 32h-88a56 56 0 0 0-56 56v77.49a40 40 0 0 1-11.72 28.29L7 239a24 24 0 0 0 0 34l45.24 45.24A40 40 0 0 1 64 346.52V424a56 56 0 0 0 56 56h88a16 16 0 0 0 16-16v-16a16 16 0 0 0-16-16h-88a8 8 0 0 1-8-8v-77.48a88.06 88.06 0 0 0-25.78-62.24L57.93 256l28.29-28.28A88.06 88.06 0 0 0 112 165.48V88a8 8 0 0 1 8-8h88a16 16 0 0 0 16-16V48a16 16 0 0 0-16-16zm361 207l-45.25-45.24A40.07 40.07 0 0 1 512 165.48V88a56 56 0 0 0-56-56h-88a16 16 0 0 0-16 16v16a16 16 0 0 0 16 16h88a8 8 0 0 1 8 8v77.48a88 88 0 0 0 25.78 62.24L518.06 256l-28.28 28.28A88 88 0 0 0 464 346.52V424a8 8 0 0 1-8 8h-88a16 16 0 0 0-16 16v16a16 16 0 0 0 16 16h88a56 56 0 0 0 56-56v-77.49a40 40 0 0 1 11.72-28.29L569 273a24 24 0 0 0 0-34z"/>
</symbol>

<symbol id="trumbowyg-special-chars" viewBox="0 0 640 512">
<path d="M640 403l-23.8-296c-.5-6.2-5.7-11-12-11h-43c-4.9 0-9.3 3-11.2 7.6l-59.6 150.6c-7.2 18.9-15.8 46.9-15.8 46.9h-.9s-9-27.9-16.2-46.9l-59.6-150.6c-1.8-4.6-6.2-7.6-11.2-7.6h-43c-6.2 0-11.5 4.8-12 11l-24.2 296c-.6 7 4.9 13 12 13h34c6.3 0 11.5-4.8 12-11.1l12.7-167.8c1.4-21.2.5-50 .5-50h.9s9.9 31.5 17.6 50l48.3 116.5c1.9 4.5 6.2 7.4 11.1 7.4h34.9c4.8 0 9.2-2.9 11.1-7.4L551.3 237c7.7-18.5 17.1-49.6 17.1-49.6h.9s-.9 28.4.5 49.6l12.7 167.8c.5 6.3 5.7 11.1 12 11.1H628c7 .1 12.5-5.9 12-12.9zM256.2 96H12c-6.6 0-12 5.4-12 12v26c0 6.6 5.4 12 12 12h93v258c0 6.6 5.4 12 12 12h34.1c6.6 0 12-5.4 12-12V146h93c6.6 0 12-5.4 12-12v-26c.1-6.6-5.3-12-11.9-12z"/>
</symbol>


<symbol viewBox="0 0 576 512" id="trumbowyg-upload">
<path d="M528 288H384v-32h64c42.6 0 64.2-51.7 33.9-81.9l-160-160c-18.8-18.8-49.1-18.7-67.9 0l-160 160c-30.1 30.1-8.7 81.9 34 81.9h64v32H48c-26.5 0-48 21.5-48 48v128c0 26.5 21.5 48 48 48h480c26.5 0 48-21.5 48-48V336c0-26.5-21.5-48-48-48zm-400-80L288 48l160 160H336v160h-96V208H128zm400 256H48V336h144v32c0 26.5 21.5 48 48 48h96c26.5 0 48-21.5 48-48v-32h144v128zm-40-64c0 13.3-10.7 24-24 24s-24-10.7-24-24 10.7-24 24-24 24 10.7 24 24z"/>
</symbol>


<symbol id="trumbowyg-pre" viewBox="0 0 576 512">
<path d="M560 0H16C7.16 0 0 7.16 0 16v16c0 8.84 7.16 16 16 16h16v272c0 17.67 14.33 32 32 32h200v43.72l-77.65 77.65c-6.25 6.25-6.25 16.38 0 22.63l11.31 11.31c6.25 6.25 16.38 6.25 22.63 0L288 439.6l67.72 67.72c6.25 6.25 16.38 6.25 22.63 0l11.3-11.32c6.25-6.25 6.25-16.38 0-22.63L312 395.72V352h200c17.67 0 32-14.33 32-32V48h16c8.84 0 16-7.16 16-16V16c0-8.84-7.16-16-16-16zm-64 304H80V48h416v256z"/>
</symbol>



   <symbol id="trumbowyg-mathml">
      <path d="M426.024 86.447H209.705l-84.911 298.911c-2.568 7.967-9.854 13.482-18.22 13.771-.236 0-.464.006-.688.006a19.868 19.868 0 01-18.436-12.478l-34.714-86.782H19.851C8.884 299.876 0 290.986 0 280.022c0-10.965 8.893-19.854 19.851-19.854H66.18a19.862 19.862 0 0118.436 12.483l19.237 48.09 72.472-260.218a19.855 19.855 0 0118.903-13.781h230.798c10.97 0 19.854 8.89 19.854 19.851s-8.892 19.854-19.856 19.854zm10.699 266.78l-78.259-87.904 74.576-82.783c1.318-1.454 1.638-3.547.857-5.341a4.977 4.977 0 00-4.54-2.946h-47.18a4.995 4.995 0 00-3.759 1.72l-50.059 58.047-49.674-58.029a4.95 4.95 0 00-3.771-1.738H225.58a4.947 4.947 0 00-4.521 2.929 4.939 4.939 0 00.824 5.332l73.743 82.81-77.641 87.923a4.977 4.977 0 00-.813 5.325 4.978 4.978 0 004.528 2.92h48.9c1.472 0 2.867-.65 3.807-1.785l51.819-62.181 53.05 62.229a4.972 4.972 0 003.782 1.743h49.97a4.938 4.938 0 004.527-2.926 4.966 4.966 0 00-.832-5.345z"/>
   </symbol>

   <symbol id="trumbowyg-giphy" viewBox="0 0 72 72">
      <g fill-rule="nonzero">
         <path d="M15.676 40.149v-5.282h13.645v12.489c-1.326 1.283-3.248 2.413-5.764 3.39-2.516.977-5.065 1.465-7.646 1.465-3.279 0-6.137-.688-8.575-2.064-2.439-1.376-4.271-3.343-5.497-5.903C.613 41.685 0 38.901 0 35.893c0-3.265.684-6.166 2.053-8.704 1.369-2.538 3.372-4.484 6.01-5.839 2.01-1.04 4.512-1.561 7.506-1.561 3.893 0 6.933.816 9.122 2.449 2.188 1.632 3.596 3.889 4.223 6.769l-6.287 1.176c-.442-1.54-1.273-2.755-2.492-3.646-1.219-.892-2.741-1.337-4.566-1.337-2.766 0-4.965.877-6.597 2.63-1.633 1.754-2.449 4.356-2.449 7.806 0 3.722.827 6.513 2.481 8.373 1.654 1.861 3.821 2.791 6.501 2.791 1.326 0 2.656-.26 3.989-.781 1.333-.52 2.477-1.151 3.432-1.892v-3.978h-7.25zM36.568 20.324h6.33v31.352h-6.33zM50.507 51.676V20.324H72v5.304H56.837v7.421h13.089v5.303H56.837v13.324h-6.33z"/>
      </g>
   </symbol>

   <symbol id="trumbowyg-base64" viewBox="0 0 72 72">
      <path d="M64 17v38H8V17h56m8-8H0v54h72V9z"/>
      <path d="M29.9 28.9c-.5-.5-1.1-.8-1.8-.8s-1.4.2-1.9.7c-.5.4-.9 1-1.2 1.6-.3.6-.5 1.3-.6 2.1-.1.7-.2 1.4-.2 1.9l.1.1c.6-.8 1.2-1.4 2-1.8.8-.4 1.7-.5 2.7-.5.9 0 1.8.2 2.6.6.8.4 1.6.9 2.2 1.5.6.6 1 1.3 1.2 2.2.3.8.4 1.6.4 2.5 0 1.1-.2 2.1-.5 3-.3.9-.8 1.7-1.5 2.4-.6.7-1.4 1.2-2.3 1.6-.9.4-1.9.6-3 .6-1.6 0-2.8-.3-3.9-.9-1-.6-1.8-1.4-2.5-2.4-.6-1-1-2.1-1.3-3.4-.2-1.3-.4-2.6-.4-3.9 0-1.3.1-2.6.4-3.8.3-1.3.8-2.4 1.4-3.5.7-1 1.5-1.9 2.5-2.5 1-.6 2.3-1 3.8-1 .9 0 1.7.1 2.5.4.8.3 1.4.6 2 1.1.6.5 1.1 1.1 1.4 1.8.4.7.6 1.5.7 2.5h-4c0-1-.3-1.6-.8-2.1zm-3.5 6.8c-.4.2-.8.5-1 .8-.3.4-.5.8-.6 1.2-.1.5-.2 1-.2 1.5s.1.9.2 1.4c.1.5.4.9.6 1.2.3.4.6.7 1 .9.4.2.9.3 1.4.3.5 0 1-.1 1.3-.3.4-.2.7-.5 1-.9.3-.4.5-.8.6-1.2.1-.5.2-.9.2-1.4 0-.5-.1-1-.2-1.4-.1-.5-.3-.9-.6-1.2-.3-.4-.6-.7-1-.9-.4-.2-.9-.3-1.4-.3-.4 0-.9.1-1.3.3zM36.3 41.3v-3.8l9-12.1H49v12.4h2.7v3.5H49v4.8h-4v-4.8h-8.7zM45 30.7l-5.3 7.2h5.4l-.1-7.2z"/>
   </symbol>
   <symbol id="trumbowyg-back-color" viewBox="0 0 72 72">
      <path d="M36.5 22.3l-6.3 18.1H43l-6.3-18.1z"/>
      <path d="M9 8.9v54.2h54.1V8.9H9zm39.9 48.2L45 46H28.2l-3.9 11.1h-7.6L32.8 15h7.8l16.2 42.1h-7.9z"/>
   </symbol>
   <symbol id="trumbowyg-ruby">
      <path d="M16.499 24.477h8.018L41.08 67.5H33l-4.04-11.361H11.804L7.764 67.5H0l16.499-43.023zm-2.65 25.907h13.127l-6.438-18.497h-.177l-6.512 18.497zM65.053 16.685c-6.316 1.178-12.025 1.98-17.126 2.408a362.385 362.385 0 00-.965 5.833c-.25 1.57-.679 3.907-1.286 7.013 3.033-1.963 5.852-3.266 8.458-3.907 2.639-.642 4.905-.891 6.797-.75 1.891.108 3.746.661 5.566 1.661 1.82.964 3.264 2.408 4.334 4.334 1.104 1.893 1.427 4.088.965 6.584-.466 2.461-1.554 4.494-3.265 6.101-1.679 1.605-3.658 2.783-5.941 3.532-2.283.785-4.853 1.251-7.707 1.391-2.819.144-5.906.161-9.259.056 0-1.642-.287-3.212-.857-4.71l.108-.59c2.711.5 5.246.768 7.601.802 2.39 0 4.529-.195 6.421-.589 1.927-.393 3.605-1.069 5.031-2.031 1.427-.965 2.319-2.319 2.676-4.067.394-1.75.269-3.229-.373-4.443-.644-1.249-1.446-2.213-2.408-2.891-.929-.68-2.161-1.034-3.693-1.071-1.536-.072-3.265.089-5.192.482-1.927.391-3.82 1.14-5.672 2.248a24.308 24.308 0 00-4.978 3.907l-4.872-1.981c1.463-5.031 2.355-8.597 2.677-10.703.321-2.105.642-4.067.963-5.887-3.961.25-7.154.411-9.58.481-.215-1.927-.52-3.534-.91-4.817l.32-.32c3.604.32 7.225.446 10.865.375.214-1.355.481-3.103.804-5.245.354-2.175.407-3.621.16-4.336.034-.784.374-1.017 1.017-.695l5.085.749c.428.251.444.573.055.964l-.857.91c-.537 2.89-.981 5.352-1.338 7.385 4.279-.427 9.312-1.393 15.092-2.89l1.284 4.707"/>
   </symbol>
   <symbol id="trumbowyg-col-delete" viewBox="0 0 24 24">
      <g transform="translate(-326 -532.36)">
         <rect width="6" height="15" x="335" y="537.36" fill="#ed5565" stroke="#000" stroke-linejoin="round" stroke-linecap="round" stroke-width=".837" rx=".646"/>
         <path d="M347.58 536.498c-.051-.618-.55-1.138-1.178-1.138H329.6c-.628 0-1.127.52-1.18 1.138h-.02v15.663a1.2 1.2 0 001.2 1.2h16.801a1.2 1.2 0 001.2-1.2v-15.663h-.021M334.4 552.16h-4.8v-3.6h4.8v3.6m0-4.7h-4.8v-3.7h4.8v3.7m0-4.9h-4.8v-3.601h4.8v3.6m6 9.601h-4.8v-3.6h4.8v3.6m0-4.7h-4.8v-3.7h4.8v3.7m0-4.9h-4.8v-3.601h4.8v3.6m6.001 9.601h-4.8v-3.6h4.8v3.6m0-4.7h-4.8v-3.7h4.8v3.7m0-4.9h-4.8v-3.601h4.8v3.6"/>
      </g>
   </symbol>
   <symbol id="trumbowyg-col-left" viewBox="0 0 24 24">
      <g transform="translate(-326 -532.36)">
         <rect width="6" height="15" x="329" y="537.36" fill="#1ab394" stroke="#000" stroke-linejoin="round" stroke-linecap="round" stroke-width=".837" rx=".646"/>
         <path d="M347.58 536.498c-.051-.618-.55-1.138-1.178-1.138H329.6c-.628 0-1.127.52-1.18 1.138h-.02v15.663a1.2 1.2 0 001.2 1.2h16.801a1.2 1.2 0 001.2-1.2v-15.663h-.021M334.4 552.16h-4.8v-3.6h4.8v3.6m0-4.7h-4.8v-3.7h4.8v3.7m0-4.9h-4.8v-3.601h4.8v3.6m6 9.601h-4.8v-3.6h4.8v3.6m0-4.7h-4.8v-3.7h4.8v3.7m0-4.9h-4.8v-3.601h4.8v3.6m6.001 9.601h-4.8v-3.6h4.8v3.6m0-4.7h-4.8v-3.7h4.8v3.7m0-4.9h-4.8v-3.601h4.8v3.6"/>
      </g>
   </symbol>
   <symbol id="trumbowyg-col-right" viewBox="0 0 24 24">
      <g transform="matrix(-1 0 0 1 350 -532.36)">
         <rect y="537.36" x="329" height="15" width="6" fill="#1ab394" stroke="#000" stroke-linejoin="round" stroke-linecap="round" stroke-width=".837" rx=".646"/>
         <path d="M347.58 536.498c-.051-.618-.55-1.138-1.178-1.138H329.6c-.628 0-1.127.52-1.18 1.138h-.02v15.663a1.2 1.2 0 001.2 1.2h16.801a1.2 1.2 0 001.2-1.2v-15.663h-.021M334.4 552.16h-4.8v-3.6h4.8v3.6m0-4.7h-4.8v-3.7h4.8v3.7m0-4.9h-4.8v-3.601h4.8v3.6m6 9.601h-4.8v-3.6h4.8v3.6m0-4.7h-4.8v-3.7h4.8v3.7m0-4.9h-4.8v-3.601h4.8v3.6m6.001 9.601h-4.8v-3.6h4.8v3.6m0-4.7h-4.8v-3.7h4.8v3.7m0-4.9h-4.8v-3.601h4.8v3.6"/>
      </g>
   </symbol>
   <symbol id="trumbowyg-row-above" viewBox="0 0 24 24">
      <rect y="-347" x="537.06" height="18" width="6" transform="matrix(0 1 1 0 350 -532.36)" fill="#1ab394" stroke="#000" stroke-linejoin="round" stroke-linecap="round" stroke-width=".917" rx=".776"/>
      <path d="M2.42 4.138C2.47 3.52 2.97 3 3.598 3H20.4c.628 0 1.127.52 1.18 1.138h.02V19.8a1.2 1.2 0 01-1.2 1.2H3.599a1.2 1.2 0 01-1.2-1.2V4.138h.021M15.6 19.8h4.8v-3.6h-4.8v3.6m0-4.7h4.8v-3.7h-4.8v3.7m0-4.9h4.8V6.6h-4.8v3.6m-6 9.601h4.8v-3.6H9.6v3.6m0-4.7h4.8v-3.7H9.6v3.7m0-4.9h4.8V6.6H9.6v3.6m-6.001 9.601h4.8v-3.6H3.6v3.6m0-4.7h4.8v-3.7H3.6v3.7m0-4.9h4.8V6.6H3.6v3.6"/>
   </symbol>
   <symbol id="trumbowyg-row-below" viewBox="0 0 24 24">
      <rect y="-347.06" x="548.4" height="18.13" width="4.427" transform="matrix(0 1 1 0 350 -532.36)" fill="#1ab394" stroke="#000" stroke-linejoin="round" stroke-linecap="round" stroke-width=".79" rx=".781"/>
      <path d="M2.42 4.138C2.47 3.52 2.97 3 3.598 3H20.4c.628 0 1.127.52 1.18 1.138h.02V19.8a1.2 1.2 0 01-1.2 1.2H3.599a1.2 1.2 0 01-1.2-1.2V4.138h.021M15.6 19.8h4.8v-3.6h-4.8v3.6m0-4.7h4.8v-3.7h-4.8v3.7m0-4.9h4.8V6.6h-4.8v3.6m-6 9.601h4.8v-3.6H9.6v3.6m0-4.7h4.8v-3.7H9.6v3.7m0-4.9h4.8V6.6H9.6v3.6m-6.001 9.601h4.8v-3.6H3.6v3.6m0-4.7h4.8v-3.7H3.6v3.7m0-4.9h4.8V6.6H3.6v3.6"/>
   </symbol>
   <symbol id="trumbowyg-row-delete" viewBox="0 0 24 24">
      <rect width="5" height="18" x="543.36" y="-347" transform="rotate(90 103.18 -429.18)" fill="#ed5565" rx=".776"/>
      <path d="M21.58 4.136c-.051-.618-.55-1.138-1.178-1.138H3.6c-.628 0-1.127.52-1.18 1.138H2.4v15.663A1.2 1.2 0 003.6 21h16.801a1.2 1.2 0 001.2-1.2V4.136h-.021M8.4 19.799H3.6v-3.6h4.8v3.6m0-4.7H3.6v-3.7h4.8v3.7m0-4.9H3.6V6.597h4.8v3.6m6 9.601H9.6v-3.6h4.8v3.6m0-4.7H9.6v-3.7h4.8v3.7m0-4.9H9.6V6.597h4.8v3.6m6.001 9.601h-4.8v-3.6h4.8v3.6m0-4.7h-4.8v-3.7h4.8v3.7m0-4.9h-4.8V6.597h4.8v3.6"/>
   </symbol>
   <symbol id="trumbowyg-table-delete" viewBox="0 0 24 24">
      <rect y="-347" x="537.06" height="18" width="6" transform="matrix(0 1 1 0 350 -532.36)" fill="#ed5565" stroke="#000" stroke-linejoin="round" stroke-linecap="round" stroke-width=".917" rx=".776"/>
      <rect width="5" height="18" x="543.36" y="-347" transform="rotate(90 103.18 -429.18)" fill="#ed5565" rx=".776"/>
      <rect y="-347.06" x="548.4" height="18.13" width="4.427" transform="matrix(0 1 1 0 350 -532.36)" fill="#ed5565" stroke="#000" stroke-linejoin="round" stroke-linecap="round" stroke-width=".79" rx=".781"/>
      <path d="M21.58 4.136c-.051-.618-.55-1.138-1.178-1.138H3.6c-.628 0-1.127.52-1.18 1.138H2.4v15.663A1.2 1.2 0 003.6 21h16.801a1.2 1.2 0 001.2-1.2V4.136h-.021M8.4 19.799H3.6v-3.6h4.8v3.6m0-4.7H3.6v-3.7h4.8v3.7m0-4.9H3.6V6.597h4.8v3.6m6 9.601H9.6v-3.6h4.8v3.6m0-4.7H9.6v-3.7h4.8v3.7m0-4.9H9.6V6.597h4.8v3.6m6.001 9.601h-4.8v-3.6h4.8v3.6m0-4.7h-4.8v-3.7h4.8v3.7m0-4.9h-4.8V6.597h4.8v3.6"/>
   </symbol>
   <symbol id="trumbowyg-table" viewBox="0 0 72 72" preserveAspectRatio="xMaxYMax meet">
      <path d="M25.686 51.38v-6.347q0-.462-.297-.76-.298-.297-.761-.297H14.04q-.463 0-.761.297-.298.298-.298.76v6.346q0 .463.298.76.298.298.76.298h10.589q.463 0 .76-.298.298-.297.298-.76zm0-12.692v-6.346q0-.463-.297-.76-.298-.298-.761-.298H14.04q-.463 0-.761.298-.298.297-.298.76v6.346q0 .462.298.76.298.297.76.297h10.589q.463 0 .76-.297.298-.298.298-.76zm16.94 12.691v-6.346q0-.462-.297-.76-.298-.297-.761-.297H30.98q-.463 0-.76.297-.299.298-.299.76v6.346q0 .463.298.76.298.298.761.298h10.588q.463 0 .76-.298.299-.297.299-.76zm-16.94-25.383v-6.345q0-.463-.297-.76-.298-.298-.761-.298H14.04q-.463 0-.761.297-.298.298-.298.76v6.346q0 .463.298.76.298.298.76.298h10.589q.463 0 .76-.298.298-.297.298-.76zm16.94 12.692v-6.346q0-.463-.297-.76-.298-.298-.761-.298H30.98q-.463 0-.76.298-.299.297-.299.76v6.346q0 .462.298.76.298.297.761.297h10.588q.463 0 .76-.297.299-.298.299-.76zm16.94 12.691v-6.346q0-.462-.297-.76-.298-.297-.76-.297H47.92q-.463 0-.76.297-.298.298-.298.76v6.346q0 .463.297.76.298.298.761.298h10.588q.463 0 .761-.298.298-.297.298-.76zm-16.94-25.383v-6.345q0-.463-.297-.76-.298-.298-.761-.298H30.98q-.463 0-.76.297-.299.298-.299.76v6.346q0 .463.298.76.298.298.761.298h10.588q.463 0 .76-.298.299-.297.299-.76zm16.94 12.692v-6.346q0-.463-.297-.76-.298-.298-.76-.298H47.92q-.463 0-.76.298-.298.297-.298.76v6.346q0 .462.297.76.298.297.761.297h10.588q.463 0 .761-.297.298-.298.298-.76zm0-12.692v-6.345q0-.463-.297-.76-.298-.298-.76-.298H47.92q-.463 0-.76.297-.298.298-.298.76v6.346q0 .463.297.76.298.298.761.298h10.588q.463 0 .761-.298.298-.297.298-.76zm4.236-10.576v35.96q0 2.18-1.555 3.734-1.555 1.553-3.739 1.553H14.04q-2.184 0-3.739-1.553-1.555-1.553-1.555-3.735V15.42q0-2.181 1.555-3.735 1.555-1.553 3.739-1.553h44.468q2.184 0 3.739 1.553 1.555 1.554 1.555 3.735z"/>
   </symbol>


</svg>
